<?xml version="1.0" encoding="UTF-8" standalone="no"?>
<!DOCTYPE svg PUBLIC "-//W3C//DTD SVG 1.1//EN"
 "http://www.w3.org/Graphics/SVG/1.1/DTD/svg11.dtd">
<!-- Generated by graphviz version 2.43.0 (0)
 -->
<!-- Title: wordcount02 Pages: 1 -->
<svg width="100%" height="100%" xmlns="http://www.w3.org/2000/svg" xmlns:xlink="http://www.w3.org/1999/xlink">
<script type="text/ecmascript"><![CDATA[
/**
 *  SVGPan library 1.2.2
 * ======================
 *
 * Given an unique existing element with id "viewport" (or when missing, the
 * first g-element), including the library into any SVG adds the following
 * capabilities:
 *
 *  - Mouse panning
 *  - Mouse zooming (using the wheel)
 *  - Object dragging
 *
 * You can configure the behaviour of the pan/zoom/drag with the variables
 * listed in the CONFIGURATION section of this file.
 *
 * Known issues:
 *
 *  - Zooming (while panning) on Safari has still some issues
 *
 * Releases:
 *
 * 1.2.2, Tue Aug 30 17:21:56 CEST 2011, Andrea Leofreddi
 *	- Fixed viewBox on root tag (#7)
 *	- Improved zoom speed (#2)
 *
 * 1.2.1, Mon Jul  4 00:33:18 CEST 2011, Andrea Leofreddi
 *	- Fixed a regression with mouse wheel (now working on Firefox 5)
 *	- Working with viewBox attribute (#4)
 *	- Added "use strict;" and fixed resulting warnings (#5)
 *	- Added configuration variables, dragging is disabled by default (#3)
 *
 * 1.2, Sat Mar 20 08:42:50 GMT 2010, Zeng Xiaohui
 *	Fixed a bug with browser mouse handler interaction
 *
 * 1.1, Wed Feb  3 17:39:33 GMT 2010, Zeng Xiaohui
 *	Updated the zoom code to support the mouse wheel on Safari/Chrome
 *
 * 1.0, Andrea Leofreddi
 *	First release
 *
 * This code is licensed under the following BSD license:
 *
 * Copyright 2009-2017 Andrea Leofreddi <a.leofreddi@vleo.net>. All rights reserved.
 *
 * Redistribution and use in source and binary forms, with or without modification, are
 * permitted provided that the following conditions are met:
 *
 *    1. Redistributions of source code must retain the above copyright
 *       notice, this list of conditions and the following disclaimer.
 *    2. Redistributions in binary form must reproduce the above copyright
 *       notice, this list of conditions and the following disclaimer in the
 *       documentation and/or other materials provided with the distribution.
 *    3. Neither the name of the copyright holder nor the names of its
 *       contributors may be used to endorse or promote products derived from
 *       this software without specific prior written permission.
 *
 * THIS SOFTWARE IS PROVIDED BY COPYRIGHT HOLDERS AND CONTRIBUTORS ''AS IS'' AND ANY EXPRESS
 * OR IMPLIED WARRANTIES, INCLUDING, BUT NOT LIMITED TO, THE IMPLIED WARRANTIES OF MERCHANTABILITY
 * AND FITNESS FOR A PARTICULAR PURPOSE ARE DISCLAIMED. IN NO EVENT SHALL COPYRIGHT HOLDERS OR
 * CONTRIBUTORS BE LIABLE FOR ANY DIRECT, INDIRECT, INCIDENTAL, SPECIAL, EXEMPLARY, OR
 * CONSEQUENTIAL DAMAGES (INCLUDING, BUT NOT LIMITED TO, PROCUREMENT OF SUBSTITUTE GOODS OR
 * SERVICES; LOSS OF USE, DATA, OR PROFITS; OR BUSINESS INTERRUPTION) HOWEVER CAUSED AND ON
 * ANY THEORY OF LIABILITY, WHETHER IN CONTRACT, STRICT LIABILITY, OR TORT (INCLUDING
 * NEGLIGENCE OR OTHERWISE) ARISING IN ANY WAY OUT OF THE USE OF THIS SOFTWARE, EVEN IF
 * ADVISED OF THE POSSIBILITY OF SUCH DAMAGE.
 *
 * The views and conclusions contained in the software and documentation are those of the
 * authors and should not be interpreted as representing official policies, either expressed
 * or implied, of Andrea Leofreddi.
 */

"use strict";

/// CONFIGURATION
/// ====>

var enablePan = 1; // 1 or 0: enable or disable panning (default enabled)
var enableZoom = 1; // 1 or 0: enable or disable zooming (default enabled)
var enableDrag = 0; // 1 or 0: enable or disable dragging (default disabled)
var zoomScale = 0.2; // Zoom sensitivity

/// <====
/// END OF CONFIGURATION

var root = document.documentElement;

var state = 'none', svgRoot = null, stateTarget, stateOrigin, stateTf;

setupHandlers(root);

/**
 * Register handlers
 */
function setupHandlers(root){
	setAttributes(root, {
		"onmouseup" : "handleMouseUp(evt)",
		"onmousedown" : "handleMouseDown(evt)",
		"onmousemove" : "handleMouseMove(evt)",
		//"onmouseout" : "handleMouseUp(evt)", // Decomment this to stop the pan functionality when dragging out of the SVG element
	});

	if(navigator.userAgent.toLowerCase().indexOf('webkit') >= 0)
		window.addEventListener('mousewheel', handleMouseWheel, false); // Chrome/Safari
	else
		window.addEventListener('DOMMouseScroll', handleMouseWheel, false); // Others
}

/**
 * Retrieves the root element for SVG manipulation. The element is then cached into the svgRoot global variable.
 */
function getRoot(root) {
	if(svgRoot == null) {
		var r = root.getElementById("viewport") ? root.getElementById("viewport") : root.documentElement, t = r;

		while(t != root) {
			if(t.getAttribute("viewBox")) {
				setCTM(r, t.getCTM());

				t.removeAttribute("viewBox");
			}

			t = t.parentNode;
		}

		svgRoot = r;
	}

	return svgRoot;
}

/**
 * Instance an SVGPoint object with given event coordinates.
 */
function getEventPoint(evt) {
	var p = root.createSVGPoint();

	p.x = evt.clientX;
	p.y = evt.clientY;

	return p;
}

/**
 * Sets the current transform matrix of an element.
 */
function setCTM(element, matrix) {
	var s = "matrix(" + matrix.a + "," + matrix.b + "," + matrix.c + "," + matrix.d + "," + matrix.e + "," + matrix.f + ")";

	element.setAttribute("transform", s);
}

/**
 * Dumps a matrix to a string (useful for debug).
 */
function dumpMatrix(matrix) {
	var s = "[ " + matrix.a + ", " + matrix.c + ", " + matrix.e + "\n  " + matrix.b + ", " + matrix.d + ", " + matrix.f + "\n  0, 0, 1 ]";

	return s;
}

/**
 * Sets attributes of an element.
 */
function setAttributes(element, attributes){
	for (var i in attributes)
		element.setAttributeNS(null, i, attributes[i]);
}

/**
 * Handle mouse wheel event.
 */
function handleMouseWheel(evt) {
	if(!enableZoom)
		return;

	if(evt.preventDefault)
		evt.preventDefault();

	evt.returnValue = false;

	var svgDoc = evt.target.ownerDocument;

	var delta;

	if(evt.wheelDelta)
		delta = evt.wheelDelta / 360; // Chrome/Safari
	else
		delta = evt.detail / -9; // Mozilla

	var z = Math.pow(1 + zoomScale, delta);

	var g = getRoot(svgDoc);
	
	var p = getEventPoint(evt);

	p = p.matrixTransform(g.getCTM().inverse());

	// Compute new scale matrix in current mouse position
	var k = root.createSVGMatrix().translate(p.x, p.y).scale(z).translate(-p.x, -p.y);

        setCTM(g, g.getCTM().multiply(k));

	if(typeof(stateTf) == "undefined")
		stateTf = g.getCTM().inverse();

	stateTf = stateTf.multiply(k.inverse());
}

/**
 * Handle mouse move event.
 */
function handleMouseMove(evt) {
	if(evt.preventDefault)
		evt.preventDefault();

	evt.returnValue = false;

	var svgDoc = evt.target.ownerDocument;

	var g = getRoot(svgDoc);

	if(state == 'pan' && enablePan) {
		// Pan mode
		var p = getEventPoint(evt).matrixTransform(stateTf);

		setCTM(g, stateTf.inverse().translate(p.x - stateOrigin.x, p.y - stateOrigin.y));
	} else if(state == 'drag' && enableDrag) {
		// Drag mode
		var p = getEventPoint(evt).matrixTransform(g.getCTM().inverse());

		setCTM(stateTarget, root.createSVGMatrix().translate(p.x - stateOrigin.x, p.y - stateOrigin.y).multiply(g.getCTM().inverse()).multiply(stateTarget.getCTM()));

		stateOrigin = p;
	}
}

/**
 * Handle click event.
 */
function handleMouseDown(evt) {
	if(evt.preventDefault)
		evt.preventDefault();

	evt.returnValue = false;

	var svgDoc = evt.target.ownerDocument;

	var g = getRoot(svgDoc);

	if(
		evt.target.tagName == "svg"
		|| !enableDrag // Pan anyway when drag is disabled and the user clicked on an element
	) {
		// Pan mode
		state = 'pan';

		stateTf = g.getCTM().inverse();

		stateOrigin = getEventPoint(evt).matrixTransform(stateTf);
	} else {
		// Drag mode
		state = 'drag';

		stateTarget = evt.target;

		stateTf = g.getCTM().inverse();

		stateOrigin = getEventPoint(evt).matrixTransform(stateTf);
	}
}

/**
 * Handle mouse button release event.
 */
function handleMouseUp(evt) {
	if(evt.preventDefault)
		evt.preventDefault();

	evt.returnValue = false;

	var svgDoc = evt.target.ownerDocument;

	if(state == 'pan' || state == 'drag') {
		// Quit pan mode
		state = '';
	}
}
]]></script><g id="viewport" transform="scale(0.5,0.5) translate(0,0)"><g id="graph0" class="graph" transform="scale(1 1) rotate(0) translate(4 1057)">
<title>wordcount02</title>
<polygon fill="white" stroke="transparent" points="-4,4 -4,-1057 1251,-1057 1251,4 -4,4"/>
<g id="clust1" class="cluster">
<title>cluster_L</title>
<polygon fill="none" stroke="black" points="8,-912 8,-1045 582,-1045 582,-912 8,-912"/>
</g>
<!-- File: wordcount02 -->
<g id="node1" class="node">
<title>File: wordcount02</title>
<g id="a_node1"><a xlink:title="wordcount02">
<polygon fill="#f8f8f8" stroke="black" points="574,-1037 16,-1037 16,-920 574,-920 574,-1037"/>
<text text-anchor="start" x="24" y="-1020.2" font-family="Times,serif" font-size="16.00">File: wordcount02</text>
<text text-anchor="start" x="24" y="-1002.2" font-family="Times,serif" font-size="16.00">Type: inuse_space</text>
<text text-anchor="start" x="24" y="-984.2" font-family="Times,serif" font-size="16.00">Time: Mar 10, 2023 at 8:04am (UTC)</text>
<text text-anchor="start" x="24" y="-966.2" font-family="Times,serif" font-size="16.00">Showing nodes accounting for 713.93kB, 100% of 713.93kB total</text>
<text text-anchor="start" x="24" y="-929.2" font-family="Times,serif" font-size="16.00">See https://git.io/JfYMW for how to read the graph</text>
</a>
</g>
</g>
<!-- N1 -->
<g id="node1" class="node">
<title>N1</title>
<g id="a_node1"><a xlink:title="main.readbyte (689.34kB)">
<polygon fill="#edd5d5" stroke="#b20100" points="771.5,-759 524.5,-759 524.5,-673 771.5,-673 771.5,-759"/>
<text text-anchor="middle" x="648" y="-735.8" font-family="Times,serif" font-size="24.00">main</text>
<text text-anchor="middle" x="648" y="-709.8" font-family="Times,serif" font-size="24.00">readbyte</text>
<text text-anchor="middle" x="648" y="-683.8" font-family="Times,serif" font-size="24.00">689.34kB (96.56%)</text>
</a>
</g>
</g>
<!-- NN1_0 -->
<g id="NN1_0" class="node">
<title>NN1_0</title>
<g id="a_NN1_0"><a xlink:title="689.34kB">
<polygon fill="#f8f8f8" stroke="black" points="675,-603 625,-603 621,-599 621,-567 671,-567 675,-571 675,-603"/>
<polyline fill="none" stroke="black" points="671,-599 621,-599 "/>
<polyline fill="none" stroke="black" points="671,-599 671,-567 "/>
<polyline fill="none" stroke="black" points="671,-599 675,-603 "/>
<text text-anchor="middle" x="648" y="-583.1" font-family="Times,serif" font-size="8.00">16B</text>
</a>
</g>
</g>
<!-- N1&#45;&gt;NN1_0 -->
<g id="edge1" class="edge">
<title>N1&#45;&gt;NN1_0</title>
<g id="a_edge1"><a xlink:title="689.34kB">
<path fill="none" stroke="black" d="M648,-672.76C648,-653.35 648,-630.88 648,-613.67"/>
<polygon fill="black" stroke="black" points="651.5,-613.2 648,-603.2 644.5,-613.2 651.5,-613.2"/>
</a>
</g>
<g id="a_edge1&#45;label"><a xlink:title="689.34kB">
<text text-anchor="middle" x="684.5" y="-636.3" font-family="Times,serif" font-size="14.00"> 689.34kB</text>
</a>
</g>
</g>
<!-- N2 -->
<g id="node2" class="node">
<title>N2</title>
<g id="a_node2"><a xlink:title="runtime.main (701.17kB)">
<polygon fill="#edd5d5" stroke="#b20000" points="704,-996.5 592,-996.5 592,-960.5 704,-960.5 704,-996.5"/>
<text text-anchor="middle" x="648" y="-985.6" font-family="Times,serif" font-size="8.00">runtime</text>
<text text-anchor="middle" x="648" y="-976.6" font-family="Times,serif" font-size="8.00">main</text>
<text text-anchor="middle" x="648" y="-967.6" font-family="Times,serif" font-size="8.00">0 of 701.17kB (98.21%)</text>
</a>
</g>
</g>
<!-- N3 -->
<g id="node3" class="node">
<title>N3</title>
<g id="a_node3"><a xlink:title="main.main (693.45kB)">
<polygon fill="#edd5d5" stroke="#b20100" points="704,-865 592,-865 592,-829 704,-829 704,-865"/>
<text text-anchor="middle" x="648" y="-854.1" font-family="Times,serif" font-size="8.00">main</text>
<text text-anchor="middle" x="648" y="-845.1" font-family="Times,serif" font-size="8.00">main</text>
<text text-anchor="middle" x="648" y="-836.1" font-family="Times,serif" font-size="8.00">0 of 693.45kB (97.13%)</text>
</a>
</g>
</g>
<!-- N2&#45;&gt;N3 -->
<g id="edge7" class="edge">
<title>N2&#45;&gt;N3</title>
<g id="a_edge7"><a xlink:title="runtime.main &#45;&gt; main.main (693.45kB)">
<path fill="none" stroke="#b20100" stroke-width="5" d="M648,-960.3C648,-938.63 648,-901.12 648,-875.46"/>
<polygon fill="#b20100" stroke="#b20100" stroke-width="5" points="652.38,-875.27 648,-865.27 643.63,-875.27 652.38,-875.27"/>
</a>
</g>
<g id="a_edge7&#45;label"><a xlink:title="runtime.main &#45;&gt; main.main (693.45kB)">
<text text-anchor="middle" x="684.5" y="-890.8" font-family="Times,serif" font-size="14.00"> 693.45kB</text>
</a>
</g>
</g>
<!-- N13 -->
<g id="node13" class="node">
<title>N13</title>
<g id="a_node13"><a xlink:title="runtime.doInit (7.72kB)">
<polygon fill="#edeceb" stroke="#b2b0a8" points="869,-865 773,-865 773,-829 869,-829 869,-865"/>
<text text-anchor="middle" x="821" y="-854.1" font-family="Times,serif" font-size="8.00">runtime</text>
<text text-anchor="middle" x="821" y="-845.1" font-family="Times,serif" font-size="8.00">doInit</text>
<text text-anchor="middle" x="821" y="-836.1" font-family="Times,serif" font-size="8.00">0 of 7.72kB (1.08%)</text>
</a>
</g>
</g>
<!-- N2&#45;&gt;N13 -->
<g id="edge10" class="edge">
<title>N2&#45;&gt;N13</title>
<g id="a_edge10"><a xlink:title="runtime.main &#45;&gt; runtime.doInit (7.72kB)">
<path fill="none" stroke="#b2b0a8" d="M670.97,-960.3C701.56,-937.41 755.77,-896.83 789.97,-871.23"/>
<polygon fill="#b2b0a8" stroke="#b2b0a8" points="792.3,-873.86 798.21,-865.06 788.1,-868.25 792.3,-873.86"/>
</a>
</g>
<g id="a_edge10&#45;label"><a xlink:title="runtime.main &#45;&gt; runtime.doInit (7.72kB)">
<text text-anchor="middle" x="793.5" y="-890.8" font-family="Times,serif" font-size="14.00"> 7.72kB</text>
</a>
</g>
</g>
<!-- N3&#45;&gt;N1 -->
<g id="edge8" class="edge">
<title>N3&#45;&gt;N1</title>
<g id="a_edge8"><a xlink:title="main.main &#45;&gt; main.readbyte (689.34kB)">
<path fill="none" stroke="#b20100" stroke-width="5" d="M648,-828.87C648,-813.67 648,-790.66 648,-769.45"/>
<polygon fill="#b20100" stroke="#b20100" stroke-width="5" points="652.38,-769.22 648,-759.22 643.63,-769.22 652.38,-769.22"/>
</a>
</g>
<g id="a_edge8&#45;label"><a xlink:title="main.main &#45;&gt; main.readbyte (689.34kB)">
<text text-anchor="middle" x="684.5" y="-795.8" font-family="Times,serif" font-size="14.00"> 689.34kB</text>
<text text-anchor="middle" x="684.5" y="-780.8" font-family="Times,serif" font-size="14.00"> (inline)</text>
</a>
</g>
</g>
<!-- N11 -->
<g id="node11" class="node">
<title>N11</title>
<g id="a_node11"><a xlink:title="github.com/pkg/profile.(*Profile).Stop (4.10kB)">
<polygon fill="#ededec" stroke="#b2b1ad" points="886,-738 790,-738 790,-694 886,-694 886,-738"/>
<text text-anchor="middle" x="838" y="-727.6" font-family="Times,serif" font-size="8.00">profile</text>
<text text-anchor="middle" x="838" y="-718.6" font-family="Times,serif" font-size="8.00">(*Profile)</text>
<text text-anchor="middle" x="838" y="-709.6" font-family="Times,serif" font-size="8.00">Stop</text>
<text text-anchor="middle" x="838" y="-700.6" font-family="Times,serif" font-size="8.00">0 of 4.10kB (0.57%)</text>
</a>
</g>
</g>
<!-- N3&#45;&gt;N11 -->
<g id="edge26" class="edge">
<title>N3&#45;&gt;N11</title>
<g id="a_edge26"><a xlink:title="main.main &#45;&gt; github.com/pkg/profile.(*Profile).Stop (4.10kB)">
<path fill="none" stroke="#b2b1ad" d="M685.67,-828.84C698.46,-822.51 712.64,-814.93 725,-807 754.14,-788.3 784.71,-763.59 806.69,-744.8"/>
<polygon fill="#b2b1ad" stroke="#b2b1ad" points="809.1,-747.35 814.39,-738.17 804.53,-742.05 809.1,-747.35"/>
</a>
</g>
<g id="a_edge26&#45;label"><a xlink:title="main.main &#45;&gt; github.com/pkg/profile.(*Profile).Stop (4.10kB)">
<text text-anchor="middle" x="795.5" y="-788.3" font-family="Times,serif" font-size="14.00"> 4.10kB</text>
</a>
</g>
</g>
<!-- N4 -->
<g id="node4" class="node">
<title>N4</title>
<g id="a_node4"><a xlink:title="vendor/golang.org/x/net/http2/hpack.(*headerFieldTable).addEntry (7.72kB)">
<polygon fill="#edeceb" stroke="#b2b0a8" points="1011.5,-497 892.5,-497 892.5,-445 1011.5,-445 1011.5,-497"/>
<text text-anchor="middle" x="952" y="-485" font-family="Times,serif" font-size="10.00">hpack</text>
<text text-anchor="middle" x="952" y="-474" font-family="Times,serif" font-size="10.00">(*headerFieldTable)</text>
<text text-anchor="middle" x="952" y="-463" font-family="Times,serif" font-size="10.00">addEntry</text>
<text text-anchor="middle" x="952" y="-452" font-family="Times,serif" font-size="10.00">7.72kB (1.08%)</text>
</a>
</g>
</g>
<!-- NN4_0 -->
<g id="NN4_0" class="node">
<title>NN4_0</title>
<g id="a_NN4_0"><a xlink:title="7.72kB">
<polygon fill="#f8f8f8" stroke="black" points="979,-391.5 929,-391.5 925,-387.5 925,-355.5 975,-355.5 979,-359.5 979,-391.5"/>
<polyline fill="none" stroke="black" points="975,-387.5 925,-387.5 "/>
<polyline fill="none" stroke="black" points="975,-387.5 975,-355.5 "/>
<polyline fill="none" stroke="black" points="975,-387.5 979,-391.5 "/>
<text text-anchor="middle" x="952" y="-371.6" font-family="Times,serif" font-size="8.00">6kB</text>
</a>
</g>
</g>
<!-- N4&#45;&gt;NN4_0 -->
<g id="edge2" class="edge">
<title>N4&#45;&gt;NN4_0</title>
<g id="a_edge2"><a xlink:title="7.72kB">
<path fill="none" stroke="black" d="M952,-444.91C952,-431.65 952,-415.36 952,-401.79"/>
<polygon fill="black" stroke="black" points="955.5,-401.6 952,-391.6 948.5,-401.6 955.5,-401.6"/>
</a>
</g>
<g id="a_edge2&#45;label"><a xlink:title="7.72kB">
<text text-anchor="middle" x="979.5" y="-415.8" font-family="Times,serif" font-size="14.00"> 7.72kB</text>
</a>
</g>
</g>
<!-- N5 -->
<g id="node5" class="node">
<title>N5</title>
<g id="a_node5"><a xlink:title="runtime.bgscavenge (4.04kB)">
<polygon fill="#ededec" stroke="#b2b1ad" points="986,-999 894,-999 894,-958 986,-958 986,-999"/>
<text text-anchor="middle" x="940" y="-987" font-family="Times,serif" font-size="10.00">runtime</text>
<text text-anchor="middle" x="940" y="-976" font-family="Times,serif" font-size="10.00">bgscavenge</text>
<text text-anchor="middle" x="940" y="-965" font-family="Times,serif" font-size="10.00">4.04kB (0.57%)</text>
</a>
</g>
</g>
<!-- NN5_0 -->
<g id="NN5_0" class="node">
<title>NN5_0</title>
<g id="a_NN5_0"><a xlink:title="4.04kB">
<polygon fill="#f8f8f8" stroke="black" points="967,-865 917,-865 913,-861 913,-829 963,-829 967,-833 967,-865"/>
<polyline fill="none" stroke="black" points="963,-861 913,-861 "/>
<polyline fill="none" stroke="black" points="963,-861 963,-829 "/>
<polyline fill="none" stroke="black" points="963,-861 967,-865 "/>
<text text-anchor="middle" x="940" y="-845.1" font-family="Times,serif" font-size="8.00">80B</text>
</a>
</g>
</g>
<!-- N5&#45;&gt;NN5_0 -->
<g id="edge3" class="edge">
<title>N5&#45;&gt;NN5_0</title>
<g id="a_edge3"><a xlink:title="4.04kB">
<path fill="none" stroke="black" d="M940,-957.83C940,-935.89 940,-900.24 940,-875.53"/>
<polygon fill="black" stroke="black" points="943.5,-875.36 940,-865.36 936.5,-875.36 943.5,-875.36"/>
</a>
</g>
<g id="a_edge3&#45;label"><a xlink:title="4.04kB">
<text text-anchor="middle" x="967.5" y="-890.8" font-family="Times,serif" font-size="14.00"> 4.04kB</text>
</a>
</g>
</g>
<!-- N6 -->
<g id="node6" class="node">
<title>N6</title>
<g id="a_node6"><a xlink:title="runtime.allocm (4.52kB)">
<polygon fill="#edecec" stroke="#b2b1ac" points="1124,-128 1032,-128 1032,-87 1124,-87 1124,-128"/>
<text text-anchor="middle" x="1078" y="-116" font-family="Times,serif" font-size="10.00">runtime</text>
<text text-anchor="middle" x="1078" y="-105" font-family="Times,serif" font-size="10.00">allocm</text>
<text text-anchor="middle" x="1078" y="-94" font-family="Times,serif" font-size="10.00">4.52kB (0.63%)</text>
</a>
</g>
</g>
<!-- NN6_0 -->
<g id="NN6_0" class="node">
<title>NN6_0</title>
<g id="a_NN6_0"><a xlink:title="4.52kB">
<polygon fill="#f8f8f8" stroke="black" points="1105,-36 1055,-36 1051,-32 1051,0 1101,0 1105,-4 1105,-36"/>
<polyline fill="none" stroke="black" points="1101,-32 1051,-32 "/>
<polyline fill="none" stroke="black" points="1101,-32 1101,0 "/>
<polyline fill="none" stroke="black" points="1101,-32 1105,-36 "/>
<text text-anchor="middle" x="1078" y="-16.1" font-family="Times,serif" font-size="8.00">1kB</text>
</a>
</g>
</g>
<!-- N6&#45;&gt;NN6_0 -->
<g id="edge4" class="edge">
<title>N6&#45;&gt;NN6_0</title>
<g id="a_edge4"><a xlink:title="4.52kB">
<path fill="none" stroke="black" d="M1078,-86.64C1078,-74.75 1078,-59.45 1078,-46.41"/>
<polygon fill="black" stroke="black" points="1081.5,-46.12 1078,-36.12 1074.5,-46.12 1081.5,-46.12"/>
</a>
</g>
<g id="a_edge4&#45;label"><a xlink:title="4.52kB">
<text text-anchor="middle" x="1105.5" y="-57.8" font-family="Times,serif" font-size="14.00"> 4.52kB</text>
</a>
</g>
</g>
<!-- N7 -->
<g id="node7" class="node">
<title>N7</title>
<g id="a_node7"><a xlink:title="runtime.malg (4.21kB)">
<polygon fill="#ededec" stroke="#b2b1ad" points="1238,-605.5 1146,-605.5 1146,-564.5 1238,-564.5 1238,-605.5"/>
<text text-anchor="middle" x="1192" y="-593.5" font-family="Times,serif" font-size="10.00">runtime</text>
<text text-anchor="middle" x="1192" y="-582.5" font-family="Times,serif" font-size="10.00">malg</text>
<text text-anchor="middle" x="1192" y="-571.5" font-family="Times,serif" font-size="10.00">4.21kB (0.59%)</text>
</a>
</g>
</g>
<!-- NN7_0 -->
<g id="NN7_0" class="node">
<title>NN7_0</title>
<g id="a_NN7_0"><a xlink:title="4.21kB">
<polygon fill="#f8f8f8" stroke="black" points="1219,-489 1169,-489 1165,-485 1165,-453 1215,-453 1219,-457 1219,-489"/>
<polyline fill="none" stroke="black" points="1215,-485 1165,-485 "/>
<polyline fill="none" stroke="black" points="1215,-485 1215,-453 "/>
<polyline fill="none" stroke="black" points="1215,-485 1219,-489 "/>
<text text-anchor="middle" x="1192" y="-469.1" font-family="Times,serif" font-size="8.00">416B</text>
</a>
</g>
</g>
<!-- N7&#45;&gt;NN7_0 -->
<g id="edge5" class="edge">
<title>N7&#45;&gt;NN7_0</title>
<g id="a_edge5"><a xlink:title="4.21kB">
<path fill="none" stroke="black" d="M1192,-564.49C1192,-546.43 1192,-519.39 1192,-499.21"/>
<polygon fill="black" stroke="black" points="1195.5,-499.09 1192,-489.09 1188.5,-499.09 1195.5,-499.09"/>
</a>
</g>
<g id="a_edge5&#45;label"><a xlink:title="4.21kB">
<text text-anchor="middle" x="1219.5" y="-526.3" font-family="Times,serif" font-size="14.00"> 4.21kB</text>
</a>
</g>
</g>
<!-- N8 -->
<g id="node8" class="node">
<title>N8</title>
<g id="a_node8"><a xlink:title="runtime/pprof.lockProfiles (4.10kB)">
<polygon fill="#ededec" stroke="#b2b1ad" points="872,-394 780,-394 780,-353 872,-353 872,-394"/>
<text text-anchor="middle" x="826" y="-382" font-family="Times,serif" font-size="10.00">pprof</text>
<text text-anchor="middle" x="826" y="-371" font-family="Times,serif" font-size="10.00">lockProfiles</text>
<text text-anchor="middle" x="826" y="-360" font-family="Times,serif" font-size="10.00">4.10kB (0.57%)</text>
</a>
</g>
</g>
<!-- NN8_0 -->
<g id="NN8_0" class="node">
<title>NN8_0</title>
<g id="a_NN8_0"><a xlink:title="4.10kB">
<polygon fill="#f8f8f8" stroke="black" points="853,-302 803,-302 799,-298 799,-266 849,-266 853,-270 853,-302"/>
<polyline fill="none" stroke="black" points="849,-298 799,-298 "/>
<polyline fill="none" stroke="black" points="849,-298 849,-266 "/>
<polyline fill="none" stroke="black" points="849,-298 853,-302 "/>
<text text-anchor="middle" x="826" y="-282.1" font-family="Times,serif" font-size="8.00">208B</text>
</a>
</g>
</g>
<!-- N8&#45;&gt;NN8_0 -->
<g id="edge6" class="edge">
<title>N8&#45;&gt;NN8_0</title>
<g id="a_edge6"><a xlink:title="4.10kB">
<path fill="none" stroke="black" d="M826,-352.64C826,-340.75 826,-325.45 826,-312.41"/>
<polygon fill="black" stroke="black" points="829.5,-312.12 826,-302.12 822.5,-312.12 829.5,-312.12"/>
</a>
</g>
<g id="a_edge6&#45;label"><a xlink:title="4.10kB">
<text text-anchor="middle" x="853.5" y="-323.8" font-family="Times,serif" font-size="14.00"> 4.10kB</text>
</a>
</g>
</g>
<!-- N9 -->
<g id="node9" class="node">
<title>N9</title>
<g id="a_node9"><a xlink:title="runtime.mstart (4.52kB)">
<polygon fill="#edecec" stroke="#b2b1ac" points="1126,-996.5 1030,-996.5 1030,-960.5 1126,-960.5 1126,-996.5"/>
<text text-anchor="middle" x="1078" y="-985.6" font-family="Times,serif" font-size="8.00">runtime</text>
<text text-anchor="middle" x="1078" y="-976.6" font-family="Times,serif" font-size="8.00">mstart</text>
<text text-anchor="middle" x="1078" y="-967.6" font-family="Times,serif" font-size="8.00">0 of 4.52kB (0.63%)</text>
</a>
</g>
</g>
<!-- N14 -->
<g id="node14" class="node">
<title>N14</title>
<g id="a_node14"><a xlink:title="runtime.mstart0 (4.52kB)">
<polygon fill="#edecec" stroke="#b2b1ac" points="1126,-865 1030,-865 1030,-829 1126,-829 1126,-865"/>
<text text-anchor="middle" x="1078" y="-854.1" font-family="Times,serif" font-size="8.00">runtime</text>
<text text-anchor="middle" x="1078" y="-845.1" font-family="Times,serif" font-size="8.00">mstart0</text>
<text text-anchor="middle" x="1078" y="-836.1" font-family="Times,serif" font-size="8.00">0 of 4.52kB (0.63%)</text>
</a>
</g>
</g>
<!-- N9&#45;&gt;N14 -->
<g id="edge13" class="edge">
<title>N9&#45;&gt;N14</title>
<g id="a_edge13"><a xlink:title="runtime.mstart &#45;&gt; runtime.mstart0 (4.52kB)">
<path fill="none" stroke="#b2b1ac" d="M1078,-960.3C1078,-938.63 1078,-901.12 1078,-875.46"/>
<polygon fill="#b2b1ac" stroke="#b2b1ac" points="1081.5,-875.27 1078,-865.27 1074.5,-875.27 1081.5,-875.27"/>
</a>
</g>
<g id="a_edge13&#45;label"><a xlink:title="runtime.mstart &#45;&gt; runtime.mstart0 (4.52kB)">
<text text-anchor="middle" x="1105.5" y="-890.8" font-family="Times,serif" font-size="14.00"> 4.52kB</text>
</a>
</g>
</g>
<!-- N10 -->
<g id="node10" class="node">
<title>N10</title>
<g id="a_node10"><a xlink:title="runtime.systemstack (4.21kB)">
<polygon fill="#ededec" stroke="#b2b1ad" points="1240,-996.5 1144,-996.5 1144,-960.5 1240,-960.5 1240,-996.5"/>
<text text-anchor="middle" x="1192" y="-985.6" font-family="Times,serif" font-size="8.00">runtime</text>
<text text-anchor="middle" x="1192" y="-976.6" font-family="Times,serif" font-size="8.00">systemstack</text>
<text text-anchor="middle" x="1192" y="-967.6" font-family="Times,serif" font-size="8.00">0 of 4.21kB (0.59%)</text>
</a>
</g>
</g>
<!-- N17 -->
<g id="node17" class="node">
<title>N17</title>
<g id="a_node17"><a xlink:title="runtime.newproc.func1 (4.21kB)">
<polygon fill="#ededec" stroke="#b2b1ad" points="1240,-869 1144,-869 1144,-825 1240,-825 1240,-869"/>
<text text-anchor="middle" x="1192" y="-858.6" font-family="Times,serif" font-size="8.00">runtime</text>
<text text-anchor="middle" x="1192" y="-849.6" font-family="Times,serif" font-size="8.00">newproc</text>
<text text-anchor="middle" x="1192" y="-840.6" font-family="Times,serif" font-size="8.00">func1</text>
<text text-anchor="middle" x="1192" y="-831.6" font-family="Times,serif" font-size="8.00">0 of 4.21kB (0.59%)</text>
</a>
</g>
</g>
<!-- N10&#45;&gt;N17 -->
<g id="edge23" class="edge">
<title>N10&#45;&gt;N17</title>
<g id="a_edge23"><a xlink:title="runtime.systemstack &#45;&gt; runtime.newproc.func1 (4.21kB)">
<path fill="none" stroke="#b2b1ad" d="M1192,-960.3C1192,-939.71 1192,-904.83 1192,-879.39"/>
<polygon fill="#b2b1ad" stroke="#b2b1ad" points="1195.5,-879.14 1192,-869.14 1188.5,-879.14 1195.5,-879.14"/>
</a>
</g>
<g id="a_edge23&#45;label"><a xlink:title="runtime.systemstack &#45;&gt; runtime.newproc.func1 (4.21kB)">
<text text-anchor="middle" x="1219.5" y="-890.8" font-family="Times,serif" font-size="14.00"> 4.21kB</text>
</a>
</g>
</g>
<!-- N12 -->
<g id="node12" class="node">
<title>N12</title>
<g id="a_node12"><a xlink:title="github.com/pkg/profile.Start.func4 (4.10kB)">
<polygon fill="#ededec" stroke="#b2b1ad" points="880,-607 784,-607 784,-563 880,-563 880,-607"/>
<text text-anchor="middle" x="832" y="-596.6" font-family="Times,serif" font-size="8.00">profile</text>
<text text-anchor="middle" x="832" y="-587.6" font-family="Times,serif" font-size="8.00">Start</text>
<text text-anchor="middle" x="832" y="-578.6" font-family="Times,serif" font-size="8.00">func4</text>
<text text-anchor="middle" x="832" y="-569.6" font-family="Times,serif" font-size="8.00">0 of 4.10kB (0.57%)</text>
</a>
</g>
</g>
<!-- N11&#45;&gt;N12 -->
<g id="edge24" class="edge">
<title>N11&#45;&gt;N12</title>
<g id="a_edge24"><a xlink:title="github.com/pkg/profile.(*Profile).Stop &#45;&gt; github.com/pkg/profile.Start.func4 (4.10kB)">
<path fill="none" stroke="#b2b1ad" d="M837.02,-693.99C836.06,-673.18 834.56,-641.09 833.46,-617.29"/>
<polygon fill="#b2b1ad" stroke="#b2b1ad" points="836.94,-616.83 832.98,-607 829.95,-617.16 836.94,-616.83"/>
</a>
</g>
<g id="a_edge24&#45;label"><a xlink:title="github.com/pkg/profile.(*Profile).Stop &#45;&gt; github.com/pkg/profile.Start.func4 (4.10kB)">
<text text-anchor="middle" x="863.5" y="-636.3" font-family="Times,serif" font-size="14.00"> 4.10kB</text>
</a>
</g>
</g>
<!-- N23 -->
<g id="node23" class="node">
<title>N23</title>
<g id="a_node23"><a xlink:title="runtime/pprof.Lookup (4.10kB)">
<polygon fill="#ededec" stroke="#b2b1ad" points="874,-489 778,-489 778,-453 874,-453 874,-489"/>
<text text-anchor="middle" x="826" y="-478.1" font-family="Times,serif" font-size="8.00">pprof</text>
<text text-anchor="middle" x="826" y="-469.1" font-family="Times,serif" font-size="8.00">Lookup</text>
<text text-anchor="middle" x="826" y="-460.1" font-family="Times,serif" font-size="8.00">0 of 4.10kB (0.57%)</text>
</a>
</g>
</g>
<!-- N12&#45;&gt;N23 -->
<g id="edge25" class="edge">
<title>N12&#45;&gt;N23</title>
<g id="a_edge25"><a xlink:title="github.com/pkg/profile.Start.func4 &#45;&gt; runtime/pprof.Lookup (4.10kB)">
<path fill="none" stroke="#b2b1ad" d="M830.87,-562.93C829.91,-544.97 828.52,-519.02 827.47,-499.43"/>
<polygon fill="#b2b1ad" stroke="#b2b1ad" points="830.96,-499.1 826.93,-489.3 823.97,-499.47 830.96,-499.1"/>
</a>
</g>
<g id="a_edge25&#45;label"><a xlink:title="github.com/pkg/profile.Start.func4 &#45;&gt; runtime/pprof.Lookup (4.10kB)">
<text text-anchor="middle" x="857.5" y="-526.3" font-family="Times,serif" font-size="14.00"> 4.10kB</text>
</a>
</g>
</g>
<!-- N24 -->
<g id="node24" class="node">
<title>N24</title>
<g id="a_node24"><a xlink:title="vendor/golang.org/x/net/http2/hpack.init (7.72kB)">
<polygon fill="#edeceb" stroke="#b2b0a8" points="1000,-734 904,-734 904,-698 1000,-698 1000,-734"/>
<text text-anchor="middle" x="952" y="-723.1" font-family="Times,serif" font-size="8.00">hpack</text>
<text text-anchor="middle" x="952" y="-714.1" font-family="Times,serif" font-size="8.00">init</text>
<text text-anchor="middle" x="952" y="-705.1" font-family="Times,serif" font-size="8.00">0 of 7.72kB (1.08%)</text>
</a>
</g>
</g>
<!-- N13&#45;&gt;N24 -->
<g id="edge9" class="edge">
<title>N13&#45;&gt;N24</title>
<g id="a_edge9"><a xlink:title="runtime.doInit &#45;&gt; vendor/golang.org/x/net/http2/hpack.init (7.72kB)">
<path fill="none" stroke="#b2b0a8" d="M838.4,-828.87C861.2,-806.41 901.34,-766.88 927.29,-741.33"/>
<polygon fill="#b2b0a8" stroke="#b2b0a8" points="929.86,-743.71 934.53,-734.2 924.95,-738.72 929.86,-743.71"/>
</a>
</g>
<g id="a_edge9&#45;label"><a xlink:title="runtime.doInit &#45;&gt; vendor/golang.org/x/net/http2/hpack.init (7.72kB)">
<text text-anchor="middle" x="918.5" y="-788.3" font-family="Times,serif" font-size="14.00"> 7.72kB</text>
</a>
</g>
</g>
<!-- N15 -->
<g id="node15" class="node">
<title>N15</title>
<g id="a_node15"><a xlink:title="runtime.mstart1 (4.52kB)">
<polygon fill="#edecec" stroke="#b2b1ac" points="1126,-734 1030,-734 1030,-698 1126,-698 1126,-734"/>
<text text-anchor="middle" x="1078" y="-723.1" font-family="Times,serif" font-size="8.00">runtime</text>
<text text-anchor="middle" x="1078" y="-714.1" font-family="Times,serif" font-size="8.00">mstart1</text>
<text text-anchor="middle" x="1078" y="-705.1" font-family="Times,serif" font-size="8.00">0 of 4.52kB (0.63%)</text>
</a>
</g>
</g>
<!-- N14&#45;&gt;N15 -->
<g id="edge14" class="edge">
<title>N14&#45;&gt;N15</title>
<g id="a_edge14"><a xlink:title="runtime.mstart0 &#45;&gt; runtime.mstart1 (4.52kB)">
<path fill="none" stroke="#b2b1ac" d="M1078,-828.87C1078,-807.28 1078,-769.91 1078,-744.35"/>
<polygon fill="#b2b1ac" stroke="#b2b1ac" points="1081.5,-744.2 1078,-734.2 1074.5,-744.2 1081.5,-744.2"/>
</a>
</g>
<g id="a_edge14&#45;label"><a xlink:title="runtime.mstart0 &#45;&gt; runtime.mstart1 (4.52kB)">
<text text-anchor="middle" x="1105.5" y="-788.3" font-family="Times,serif" font-size="14.00"> 4.52kB</text>
</a>
</g>
</g>
<!-- N20 -->
<g id="node20" class="node">
<title>N20</title>
<g id="a_node20"><a xlink:title="runtime.schedule (4.52kB)">
<polygon fill="#edecec" stroke="#b2b1ac" points="1126,-603 1030,-603 1030,-567 1126,-567 1126,-603"/>
<text text-anchor="middle" x="1078" y="-592.1" font-family="Times,serif" font-size="8.00">runtime</text>
<text text-anchor="middle" x="1078" y="-583.1" font-family="Times,serif" font-size="8.00">schedule</text>
<text text-anchor="middle" x="1078" y="-574.1" font-family="Times,serif" font-size="8.00">0 of 4.52kB (0.63%)</text>
</a>
</g>
</g>
<!-- N15&#45;&gt;N20 -->
<g id="edge15" class="edge">
<title>N15&#45;&gt;N20</title>
<g id="a_edge15"><a xlink:title="runtime.mstart1 &#45;&gt; runtime.schedule (4.52kB)">
<path fill="none" stroke="#b2b1ac" d="M1078,-697.87C1078,-676.28 1078,-638.91 1078,-613.35"/>
<polygon fill="#b2b1ac" stroke="#b2b1ac" points="1081.5,-613.2 1078,-603.2 1074.5,-613.2 1081.5,-613.2"/>
</a>
</g>
<g id="a_edge15&#45;label"><a xlink:title="runtime.mstart1 &#45;&gt; runtime.schedule (4.52kB)">
<text text-anchor="middle" x="1105.5" y="-636.3" font-family="Times,serif" font-size="14.00"> 4.52kB</text>
</a>
</g>
</g>
<!-- N16 -->
<g id="node16" class="node">
<title>N16</title>
<g id="a_node16"><a xlink:title="runtime.newm (4.52kB)">
<polygon fill="#edecec" stroke="#b2b1ac" points="1126,-215 1030,-215 1030,-179 1126,-179 1126,-215"/>
<text text-anchor="middle" x="1078" y="-204.1" font-family="Times,serif" font-size="8.00">runtime</text>
<text text-anchor="middle" x="1078" y="-195.1" font-family="Times,serif" font-size="8.00">newm</text>
<text text-anchor="middle" x="1078" y="-186.1" font-family="Times,serif" font-size="8.00">0 of 4.52kB (0.63%)</text>
</a>
</g>
</g>
<!-- N16&#45;&gt;N6 -->
<g id="edge16" class="edge">
<title>N16&#45;&gt;N6</title>
<g id="a_edge16"><a xlink:title="runtime.newm &#45;&gt; runtime.allocm (4.52kB)">
<path fill="none" stroke="#b2b1ac" d="M1078,-178.71C1078,-167.24 1078,-151.87 1078,-138.44"/>
<polygon fill="#b2b1ac" stroke="#b2b1ac" points="1081.5,-138.19 1078,-128.19 1074.5,-138.19 1081.5,-138.19"/>
</a>
</g>
<g id="a_edge16&#45;label"><a xlink:title="runtime.newm &#45;&gt; runtime.allocm (4.52kB)">
<text text-anchor="middle" x="1105.5" y="-149.8" font-family="Times,serif" font-size="14.00"> 4.52kB</text>
</a>
</g>
</g>
<!-- N18 -->
<g id="node18" class="node">
<title>N18</title>
<g id="a_node18"><a xlink:title="runtime.newproc1 (4.21kB)">
<polygon fill="#ededec" stroke="#b2b1ad" points="1240,-734 1144,-734 1144,-698 1240,-698 1240,-734"/>
<text text-anchor="middle" x="1192" y="-723.1" font-family="Times,serif" font-size="8.00">runtime</text>
<text text-anchor="middle" x="1192" y="-714.1" font-family="Times,serif" font-size="8.00">newproc1</text>
<text text-anchor="middle" x="1192" y="-705.1" font-family="Times,serif" font-size="8.00">0 of 4.21kB (0.59%)</text>
</a>
</g>
</g>
<!-- N17&#45;&gt;N18 -->
<g id="edge21" class="edge">
<title>N17&#45;&gt;N18</title>
<g id="a_edge21"><a xlink:title="runtime.newproc.func1 &#45;&gt; runtime.newproc1 (4.21kB)">
<path fill="none" stroke="#b2b1ad" d="M1192,-824.99C1192,-803.07 1192,-768.61 1192,-744.53"/>
<polygon fill="#b2b1ad" stroke="#b2b1ad" points="1195.5,-744.28 1192,-734.28 1188.5,-744.28 1195.5,-744.28"/>
</a>
</g>
<g id="a_edge21&#45;label"><a xlink:title="runtime.newproc.func1 &#45;&gt; runtime.newproc1 (4.21kB)">
<text text-anchor="middle" x="1219.5" y="-788.3" font-family="Times,serif" font-size="14.00"> 4.21kB</text>
</a>
</g>
</g>
<!-- N18&#45;&gt;N7 -->
<g id="edge22" class="edge">
<title>N18&#45;&gt;N7</title>
<g id="a_edge22"><a xlink:title="runtime.newproc1 &#45;&gt; runtime.malg (4.21kB)">
<path fill="none" stroke="#b2b1ad" d="M1192,-697.87C1192,-677 1192,-641.39 1192,-615.95"/>
<polygon fill="#b2b1ad" stroke="#b2b1ad" points="1195.5,-615.74 1192,-605.74 1188.5,-615.74 1195.5,-615.74"/>
</a>
</g>
<g id="a_edge22&#45;label"><a xlink:title="runtime.newproc1 &#45;&gt; runtime.malg (4.21kB)">
<text text-anchor="middle" x="1219.5" y="-636.3" font-family="Times,serif" font-size="14.00"> 4.21kB</text>
</a>
</g>
</g>
<!-- N19 -->
<g id="node19" class="node">
<title>N19</title>
<g id="a_node19"><a xlink:title="runtime.resetspinning (4.52kB)">
<polygon fill="#edecec" stroke="#b2b1ac" points="1126,-489 1030,-489 1030,-453 1126,-453 1126,-489"/>
<text text-anchor="middle" x="1078" y="-478.1" font-family="Times,serif" font-size="8.00">runtime</text>
<text text-anchor="middle" x="1078" y="-469.1" font-family="Times,serif" font-size="8.00">resetspinning</text>
<text text-anchor="middle" x="1078" y="-460.1" font-family="Times,serif" font-size="8.00">0 of 4.52kB (0.63%)</text>
</a>
</g>
</g>
<!-- N22 -->
<g id="node22" class="node">
<title>N22</title>
<g id="a_node22"><a xlink:title="runtime.wakep (4.52kB)">
<polygon fill="#edecec" stroke="#b2b1ac" points="1126,-391.5 1030,-391.5 1030,-355.5 1126,-355.5 1126,-391.5"/>
<text text-anchor="middle" x="1078" y="-380.6" font-family="Times,serif" font-size="8.00">runtime</text>
<text text-anchor="middle" x="1078" y="-371.6" font-family="Times,serif" font-size="8.00">wakep</text>
<text text-anchor="middle" x="1078" y="-362.6" font-family="Times,serif" font-size="8.00">0 of 4.52kB (0.63%)</text>
</a>
</g>
</g>
<!-- N19&#45;&gt;N22 -->
<g id="edge17" class="edge">
<title>N19&#45;&gt;N22</title>
<g id="a_edge17"><a xlink:title="runtime.resetspinning &#45;&gt; runtime.wakep (4.52kB)">
<path fill="none" stroke="#b2b1ac" d="M1078,-452.93C1078,-438.76 1078,-418.33 1078,-401.88"/>
<polygon fill="#b2b1ac" stroke="#b2b1ac" points="1081.5,-401.75 1078,-391.75 1074.5,-401.75 1081.5,-401.75"/>
</a>
</g>
<g id="a_edge17&#45;label"><a xlink:title="runtime.resetspinning &#45;&gt; runtime.wakep (4.52kB)">
<text text-anchor="middle" x="1105.5" y="-415.8" font-family="Times,serif" font-size="14.00"> 4.52kB</text>
</a>
</g>
</g>
<!-- N20&#45;&gt;N19 -->
<g id="edge18" class="edge">
<title>N20&#45;&gt;N19</title>
<g id="a_edge18"><a xlink:title="runtime.schedule &#45;&gt; runtime.resetspinning (4.52kB)">
<path fill="none" stroke="#b2b1ac" d="M1078,-566.99C1078,-549.06 1078,-520.56 1078,-499.44"/>
<polygon fill="#b2b1ac" stroke="#b2b1ac" points="1081.5,-499.17 1078,-489.17 1074.5,-499.17 1081.5,-499.17"/>
</a>
</g>
<g id="a_edge18&#45;label"><a xlink:title="runtime.schedule &#45;&gt; runtime.resetspinning (4.52kB)">
<text text-anchor="middle" x="1105.5" y="-526.3" font-family="Times,serif" font-size="14.00"> 4.52kB</text>
</a>
</g>
</g>
<!-- N21 -->
<g id="node21" class="node">
<title>N21</title>
<g id="a_node21"><a xlink:title="runtime.startm (4.52kB)">
<polygon fill="#edecec" stroke="#b2b1ac" points="1126,-302 1030,-302 1030,-266 1126,-266 1126,-302"/>
<text text-anchor="middle" x="1078" y="-291.1" font-family="Times,serif" font-size="8.00">runtime</text>
<text text-anchor="middle" x="1078" y="-282.1" font-family="Times,serif" font-size="8.00">startm</text>
<text text-anchor="middle" x="1078" y="-273.1" font-family="Times,serif" font-size="8.00">0 of 4.52kB (0.63%)</text>
</a>
</g>
</g>
<!-- N21&#45;&gt;N16 -->
<g id="edge19" class="edge">
<title>N21&#45;&gt;N16</title>
<g id="a_edge19"><a xlink:title="runtime.startm &#45;&gt; runtime.newm (4.52kB)">
<path fill="none" stroke="#b2b1ac" d="M1078,-265.8C1078,-254.16 1078,-238.55 1078,-225.24"/>
<polygon fill="#b2b1ac" stroke="#b2b1ac" points="1081.5,-225.18 1078,-215.18 1074.5,-225.18 1081.5,-225.18"/>
</a>
</g>
<g id="a_edge19&#45;label"><a xlink:title="runtime.startm &#45;&gt; runtime.newm (4.52kB)">
<text text-anchor="middle" x="1105.5" y="-236.8" font-family="Times,serif" font-size="14.00"> 4.52kB</text>
</a>
</g>
</g>
<!-- N22&#45;&gt;N21 -->
<g id="edge20" class="edge">
<title>N22&#45;&gt;N21</title>
<g id="a_edge20"><a xlink:title="runtime.wakep &#45;&gt; runtime.startm (4.52kB)">
<path fill="none" stroke="#b2b1ac" d="M1078,-355.21C1078,-342.99 1078,-326.35 1078,-312.34"/>
<polygon fill="#b2b1ac" stroke="#b2b1ac" points="1081.5,-312.25 1078,-302.25 1074.5,-312.25 1081.5,-312.25"/>
</a>
</g>
<g id="a_edge20&#45;label"><a xlink:title="runtime.wakep &#45;&gt; runtime.startm (4.52kB)">
<text text-anchor="middle" x="1105.5" y="-323.8" font-family="Times,serif" font-size="14.00"> 4.52kB</text>
</a>
</g>
</g>
<!-- N23&#45;&gt;N8 -->
<g id="edge27" class="edge">
<title>N23&#45;&gt;N8</title>
<g id="a_edge27"><a xlink:title="runtime/pprof.Lookup &#45;&gt; runtime/pprof.lockProfiles (4.10kB)">
<path fill="none" stroke="#b2b1ad" d="M826,-452.93C826,-439.5 826,-420.46 826,-404.51"/>
<polygon fill="#b2b1ad" stroke="#b2b1ad" points="829.5,-404.06 826,-394.06 822.5,-404.06 829.5,-404.06"/>
</a>
</g>
<g id="a_edge27&#45;label"><a xlink:title="runtime/pprof.Lookup &#45;&gt; runtime/pprof.lockProfiles (4.10kB)">
<text text-anchor="middle" x="853.5" y="-415.8" font-family="Times,serif" font-size="14.00"> 4.10kB</text>
</a>
</g>
</g>
<!-- N25 -->
<g id="node25" class="node">
<title>N25</title>
<g id="a_node25"><a xlink:title="vendor/golang.org/x/net/http2/hpack.newStaticTable (7.72kB)">
<polygon fill="#edeceb" stroke="#b2b0a8" points="1000,-603 904,-603 904,-567 1000,-567 1000,-603"/>
<text text-anchor="middle" x="952" y="-592.1" font-family="Times,serif" font-size="8.00">hpack</text>
<text text-anchor="middle" x="952" y="-583.1" font-family="Times,serif" font-size="8.00">newStaticTable</text>
<text text-anchor="middle" x="952" y="-574.1" font-family="Times,serif" font-size="8.00">0 of 7.72kB (1.08%)</text>
</a>
</g>
</g>
<!-- N24&#45;&gt;N25 -->
<g id="edge11" class="edge">
<title>N24&#45;&gt;N25</title>
<g id="a_edge11"><a xlink:title="vendor/golang.org/x/net/http2/hpack.init &#45;&gt; vendor/golang.org/x/net/http2/hpack.newStaticTable (7.72kB)">
<path fill="none" stroke="#b2b0a8" d="M952,-697.87C952,-676.28 952,-638.91 952,-613.35"/>
<polygon fill="#b2b0a8" stroke="#b2b0a8" points="955.5,-613.2 952,-603.2 948.5,-613.2 955.5,-613.2"/>
</a>
</g>
<g id="a_edge11&#45;label"><a xlink:title="vendor/golang.org/x/net/http2/hpack.init &#45;&gt; vendor/golang.org/x/net/http2/hpack.newStaticTable (7.72kB)">
<text text-anchor="middle" x="979.5" y="-643.8" font-family="Times,serif" font-size="14.00"> 7.72kB</text>
<text text-anchor="middle" x="979.5" y="-628.8" font-family="Times,serif" font-size="14.00"> (inline)</text>
</a>
</g>
</g>
<!-- N25&#45;&gt;N4 -->
<g id="edge12" class="edge">
<title>N25&#45;&gt;N4</title>
<g id="a_edge12"><a xlink:title="vendor/golang.org/x/net/http2/hpack.newStaticTable &#45;&gt; vendor/golang.org/x/net/http2/hpack.(*headerFieldTable).addEntry (7.72kB)">
<path fill="none" stroke="#b2b0a8" d="M952,-566.99C952,-551.22 952,-527.26 952,-507.35"/>
<polygon fill="#b2b0a8" stroke="#b2b0a8" points="955.5,-507.08 952,-497.08 948.5,-507.08 955.5,-507.08"/>
</a>
</g>
<g id="a_edge12&#45;label"><a xlink:title="vendor/golang.org/x/net/http2/hpack.newStaticTable &#45;&gt; vendor/golang.org/x/net/http2/hpack.(*headerFieldTable).addEntry (7.72kB)">
<text text-anchor="middle" x="979.5" y="-533.8" font-family="Times,serif" font-size="14.00"> 7.72kB</text>
<text text-anchor="middle" x="979.5" y="-518.8" font-family="Times,serif" font-size="14.00"> (inline)</text>
</a>
</g>
</g>
</g>
</g></svg>
